<svg width="49" height="48" viewBox="0 0 49 48" fill="none" xmlns="http://www.w3.org/2000/svg">
<path d="M24.5 0C19.7533 0 15.1131 1.40758 11.1663 4.04473C7.21955 6.68188 4.14341 10.4302 2.3269 14.8156C0.510399 19.201 0.0351188 24.0266 0.961164 28.6822C1.88721 33.3377 4.17299 37.6141 7.52945 40.9706C10.8859 44.327 15.1623 46.6128 19.8178 47.5388C24.4734 48.4649 29.299 47.9896 33.6844 46.1731C38.0698 44.3566 41.8181 41.2805 44.4553 37.3337C47.0924 33.3869 48.5 28.7468 48.5 24C48.5 17.6348 45.9714 11.5303 41.4706 7.02944C36.9697 2.52856 30.8652 0 24.5 0ZM35.82 19.18L24.5 30.48C23.375 31.6036 21.85 32.2347 20.26 32.2347C18.67 32.2347 17.145 31.6036 16.02 30.48L13.18 27.66C12.9935 27.4735 12.8456 27.2521 12.7447 27.0085C12.6438 26.7649 12.5918 26.5037 12.5918 26.24C12.5918 25.9763 12.6438 25.7151 12.7447 25.4715C12.8456 25.2279 12.9935 25.0065 13.18 24.82C13.3665 24.6335 13.5879 24.4856 13.8315 24.3847C14.0752 24.2838 14.3363 24.2318 14.6 24.2318C14.8637 24.2318 15.1249 24.2838 15.3685 24.3847C15.6122 24.4856 15.8335 24.6335 16.02 24.82L18.84 27.66C19.0259 27.8475 19.2471 27.9962 19.4909 28.0978C19.7346 28.1993 19.996 28.2516 20.26 28.2516C20.524 28.2516 20.7854 28.1993 21.0292 28.0978C21.2729 27.9962 21.4941 27.8475 21.68 27.66L32.98 16.34C33.1665 16.1535 33.3879 16.0056 33.6315 15.9047C33.8752 15.8038 34.1363 15.7518 34.4 15.7518C34.6637 15.7518 34.9249 15.8038 35.1685 15.9047C35.4122 16.0056 35.6335 16.1535 35.82 16.34C36.0065 16.5265 36.1544 16.7479 36.2553 16.9915C36.3563 17.2351 36.4082 17.4963 36.4082 17.76C36.4082 18.0237 36.3563 18.2849 36.2553 18.5285C36.1544 18.7721 36.0065 18.9935 35.82 19.18Z" fill="#34A853"/>
</svg>
