<svg width="53" height="49" viewBox="0 0 53 49" fill="none" xmlns="http://www.w3.org/2000/svg">
<path d="M2.57649 19.6668L21.7666 32.511C23.4773 33.6515 24.3326 34.2217 25.2571 34.4433C26.0741 34.6391 26.9259 34.6391 27.7429 34.4433C28.6674 34.2217 29.5227 33.6515 31.2334 32.511L50.4235 19.6668M21.1667 18.7778L24.859 22.3333L33.1667 14.3333M19.6925 5.27517L8.49254 12.3089C6.30485 13.6828 5.211 14.3698 4.41761 15.2984C3.71539 16.1203 3.18704 17.076 2.86446 18.1078C2.5 19.2736 2.5 20.5653 2.5 23.1486V33.5333C2.5 38.0138 2.5 40.254 3.37195 41.9653C4.13893 43.4706 5.36278 44.6944 6.86808 45.4614C8.57937 46.3333 10.8196 46.3333 15.3 46.3333H37.7C42.1804 46.3333 44.4206 46.3333 46.1319 45.4614C47.6372 44.6944 48.8611 43.4706 49.6281 41.9653C50.5 40.254 50.5 38.0137 50.5 33.5333V23.1486C50.5 20.5653 50.5 19.2736 50.1355 18.1078C49.813 17.076 49.2846 16.1203 48.5824 15.2984C47.789 14.3698 46.6952 13.6828 44.5075 12.3089L33.3075 5.27517C30.8385 3.72465 29.6041 2.94939 28.2794 2.64719C27.1082 2.37997 25.8918 2.37997 24.7206 2.64719C23.3959 2.94939 22.1615 3.72465 19.6925 5.27517Z" stroke="#34A853" stroke-width="4.5" stroke-linecap="round" stroke-linejoin="round"/>
</svg>
