<svg width="41" height="41" viewBox="0 0 41 41" fill="none" xmlns="http://www.w3.org/2000/svg">
<g clip-path="url(#clip0_2_195)">
<path d="M40.5 20.4814C40.5 31.54 31.54 40.5 20.4814 40.5C9.46 40.5 0.5 31.54 0.5 20.4814C0.5 9.46 9.46 0.5 20.4814 0.5C31.54 0.5 40.5 9.46 40.5 20.4814Z" fill="#F79009"/>
<path d="M13.3586 30.5C13.2555 30.5002 13.1536 30.478 13.0599 30.4351C12.9662 30.3921 12.8829 30.3294 12.8157 30.2513C12.7485 30.1731 12.699 30.0813 12.6707 29.9822C12.6423 29.8831 12.6358 29.779 12.6514 29.6771L15.5086 11.1057C15.5419 10.9227 15.6453 10.7599 15.7968 10.6519C15.9484 10.5439 16.136 10.4994 16.3199 10.5277C16.5038 10.556 16.6694 10.6549 16.7815 10.8034C16.8935 10.9519 16.9432 11.1383 16.92 11.3229L14.0629 29.8943C14.037 30.0626 13.9518 30.2162 13.8226 30.3273C13.6935 30.4383 13.5289 30.4996 13.3586 30.5ZM27.6414 30.5C27.4711 30.4996 27.3065 30.4383 27.1774 30.3273C27.0482 30.2162 26.963 30.0626 26.9371 29.8943L24.08 11.3229C24.0568 11.1383 24.1065 10.9519 24.2185 10.8034C24.3306 10.6549 24.4962 10.556 24.6801 10.5277C24.864 10.4994 25.0516 10.5439 25.2032 10.6519C25.3547 10.7599 25.4581 10.9227 25.4914 11.1057L28.3486 29.6771C28.3642 29.779 28.3577 29.8831 28.3293 29.9822C28.301 30.0813 28.2515 30.1731 28.1843 30.2513C28.1171 30.3294 28.0338 30.3921 27.9401 30.4351C27.8464 30.478 27.7445 30.5002 27.6414 30.5ZM19.7857 11.2143C19.7857 11.0248 19.861 10.8432 19.9949 10.7092C20.1289 10.5753 20.3106 10.5 20.5 10.5C20.6894 10.5 20.8711 10.5753 21.0051 10.7092C21.139 10.8432 21.2143 11.0248 21.2143 11.2143V12.6429C21.2143 12.8323 21.139 13.014 21.0051 13.1479C20.8711 13.2819 20.6894 13.3571 20.5 13.3571C20.3106 13.3571 20.1289 13.2819 19.9949 13.1479C19.861 13.014 19.7857 12.8323 19.7857 12.6429V11.2143ZM19.7857 15.5C19.7857 15.3106 19.861 15.1289 19.9949 14.9949C20.1289 14.861 20.3106 14.7857 20.5 14.7857C20.6894 14.7857 20.8711 14.861 21.0051 14.9949C21.139 15.1289 21.2143 15.3106 21.2143 15.5V16.9286C21.2143 17.118 21.139 17.2997 21.0051 17.4336C20.8711 17.5676 20.6894 17.6429 20.5 17.6429C20.3106 17.6429 20.1289 17.5676 19.9949 17.4336C19.861 17.2997 19.7857 17.118 19.7857 16.9286V15.5ZM19.7857 19.7857C19.7857 19.5963 19.861 19.4146 19.9949 19.2806C20.1289 19.1467 20.3106 19.0714 20.5 19.0714C20.6894 19.0714 20.8711 19.1467 21.0051 19.2806C21.139 19.4146 21.2143 19.5963 21.2143 19.7857V21.2143C21.2143 21.4037 21.139 21.5854 21.0051 21.7194C20.8711 21.8533 20.6894 21.9286 20.5 21.9286C20.3106 21.9286 20.1289 21.8533 19.9949 21.7194C19.861 21.5854 19.7857 21.4037 19.7857 21.2143V19.7857ZM19.7857 24.0714C19.7857 23.882 19.861 23.7003 19.9949 23.5664C20.1289 23.4324 20.3106 23.3571 20.5 23.3571C20.6894 23.3571 20.8711 23.4324 21.0051 23.5664C21.139 23.7003 21.2143 23.882 21.2143 24.0714V25.5C21.2143 25.6894 21.139 25.8711 21.0051 26.0051C20.8711 26.139 20.6894 26.2143 20.5 26.2143C20.3106 26.2143 20.1289 26.139 19.9949 26.0051C19.861 25.8711 19.7857 25.6894 19.7857 25.5V24.0714ZM19.7857 28C19.7857 27.8106 19.861 27.6289 19.9949 27.4949C20.1289 27.361 20.3106 27.2857 20.5 27.2857C20.6894 27.2857 20.8711 27.361 21.0051 27.4949C21.139 27.6289 21.2143 27.8106 21.2143 28V29.4286C21.2143 29.618 21.139 29.7997 21.0051 29.9336C20.8711 30.0676 20.6894 30.1429 20.5 30.1429C20.3106 30.1429 20.1289 30.0676 19.9949 29.9336C19.861 29.7997 19.7857 29.618 19.7857 29.4286V28Z" fill="white"/>
</g>
<defs>
<clipPath id="clip0_2_195">
<rect width="40" height="40" fill="white" transform="translate(0.5 0.5)"/>
</clipPath>
</defs>
</svg>
